<?xml version="1.0" encoding="UTF-8" standalone="no"?>
<svg width="72px" height="57px" viewBox="0 0 72 57" version="1.1" xmlns="http://www.w3.org/2000/svg" xmlns:xlink="http://www.w3.org/1999/xlink">
    <!-- Generator: Sketch Beta 3.8 (29657) - http://www.bohemiancoding.com/sketch -->
    <title>Fill 1</title>
    <desc>Created with Sketch Beta.</desc>
    <defs></defs>
    <g id="Welcome" stroke="none" stroke-width="1" fill="none" fill-rule="evenodd">
        <g id="lantern-rough-landing-copy-2" transform="translate(-684.000000, -173.000000)" fill="#41BCB0">
            <path d="M751.874461,219.175761 C751.420175,221.134332 750.527318,222.682903 749.218747,223.780046 C747.911604,224.877189 746.231604,225.488617 744.224462,225.59576 C742.14589,225.70576 739.814462,225.281475 737.300177,224.33576 C734.704463,223.357189 732.064463,221.878618 729.455892,219.938618 C726.964464,218.088618 724.611607,215.891476 722.444464,213.410047 C724.613035,210.612905 726.464464,207.692905 727.957321,204.714334 C729.728749,201.17862 730.950177,197.675763 731.583034,194.304335 C732.214463,190.945764 732.230177,187.87005 731.638749,185.150051 C732.901606,185.865765 734.164463,186.69005 735.421605,187.622907 C738.153034,189.652907 740.720176,192.092907 743.054462,194.874335 C745.388747,197.657192 747.34589,200.60862 748.868747,203.650048 C750.325889,206.557191 751.324461,209.412905 751.835889,212.138619 C752.333032,214.778619 752.345889,217.145761 751.874461,219.175761 M723.424464,222.374332 C721.257321,223.295761 718.741607,223.295761 716.575893,222.374332 C715.953036,222.108618 715.373036,221.768618 714.830179,221.370046 C716.640179,219.860047 718.36875,218.182904 720.000179,216.35719 C721.630178,218.182904 723.360178,219.858618 725.168749,221.370046 C724.627321,221.767189 724.047321,222.108618 723.424464,222.374332 M702.700181,224.33576 C700.185895,225.281475 697.854467,225.70576 695.775896,225.59576 C693.768753,225.488617 692.087325,224.877189 690.780182,223.780046 C689.471611,222.682903 688.578754,221.134332 688.125896,219.175761 C687.654468,217.145761 687.667325,214.778619 688.163039,212.138619 C688.675896,209.412905 689.674468,206.557191 691.130182,203.650048 C692.654467,200.60862 694.610181,197.657192 696.945895,194.874335 C699.278752,192.092907 701.847323,189.652907 704.577323,187.624336 C705.834466,186.69005 707.097323,185.865765 708.36018,185.150051 C707.77018,187.87005 707.785894,190.945764 708.417323,194.304335 C709.05018,197.675763 710.27018,201.17862 712.041608,204.714334 C713.534465,207.692905 715.385893,210.612905 717.554465,213.410047 C715.388751,215.892904 713.034465,218.088618 710.544465,219.938618 C707.934466,221.878618 705.295895,223.357189 702.700181,224.33576 M719.90875,210.252905 C719.521607,209.732905 719.145893,209.208619 718.783036,208.680048 C718.713036,208.578619 718.645893,208.475762 718.575893,208.372905 C718.251607,207.894334 717.937322,207.414334 717.633036,206.930048 C717.57875,206.842905 717.523036,206.757191 717.46875,206.671477 C717.13875,206.137191 716.823036,205.600048 716.517322,205.061477 C716.445893,204.935763 716.377322,204.810048 716.307322,204.684334 C716.000179,204.131477 715.703036,203.577191 715.423036,203.020049 C713.808751,199.79862 712.703037,196.631478 712.133037,193.605764 C711.581608,190.667193 711.567322,188.028622 712.093037,185.764336 C712.604465,183.562908 713.611608,181.818622 715.087322,180.580051 C715.281608,180.417194 715.485893,180.262908 715.69875,180.117194 C715.711608,180.107194 715.725893,180.098623 715.740179,180.088623 C715.953036,179.942908 716.174465,179.807194 716.403036,179.682908 C717.511607,179.077194 718.755893,178.774337 720.000179,178.774337 C721.243036,178.774337 722.487321,179.077194 723.595892,179.682908 C723.790178,179.788623 723.975892,179.907194 724.160178,180.027194 C724.241607,180.082908 724.324464,180.137194 724.404464,180.194337 C724.578749,180.318622 724.751607,180.444337 724.913035,180.580051 C726.388749,181.818622 727.395892,183.562908 727.907321,185.764336 C728.433035,188.028622 728.418749,190.667193 727.865892,193.605764 C727.297321,196.631478 726.190178,199.79862 724.575892,203.020049 C723.320178,205.527191 721.785893,207.992905 720.001607,210.375762 C719.971607,210.334333 719.940179,210.294333 719.90875,210.252905 M755.553032,211.440048 C754.975889,208.368619 753.865889,205.177191 752.250175,201.955763 C750.594461,198.651478 748.47589,195.451478 745.951604,192.442907 C743.428747,189.437193 740.645891,186.794336 737.677319,184.587193 C734.938748,182.551479 732.145891,180.97148 729.370178,179.87148 C728.785892,179.060051 728.113035,178.327194 727.345892,177.684337 C727.157321,177.525766 726.953035,177.382909 726.753035,177.235766 C726.728749,177.215766 726.708749,177.19148 726.683035,177.172909 C726.641606,177.142909 726.597321,177.115766 726.555892,177.085766 C726.463035,177.020051 726.370178,176.955766 726.275892,176.894337 C726.223035,176.857194 726.171606,176.82148 726.118749,176.785766 C726.418749,176.782909 726.718749,176.780051 727.020178,176.79148 C729.980177,176.885766 732.884463,177.650051 735.415891,179.00148 C735.955891,179.290051 736.480177,179.60148 736.975891,179.927194 C737.847319,180.50148 739.021605,180.258622 739.594462,179.388623 C740.170176,178.515766 739.928748,177.342909 739.055891,176.768623 C738.465891,176.378623 737.840177,176.008623 737.19732,175.664337 C734.155891,174.042909 730.678749,173.124338 727.141606,173.01148 C724.700178,172.934338 722.280178,173.248623 719.994464,173.912909 C717.710179,173.247195 715.290179,172.934338 712.845894,173.01148 C709.31018,173.124338 705.833037,174.042909 702.791609,175.664337 C702.151609,176.005766 701.525895,176.377194 700.931609,176.768623 C700.060181,177.342909 699.818752,178.515766 700.393038,179.388623 C700.967324,180.258622 702.141609,180.50148 703.013038,179.927194 C703.51018,179.600051 704.034466,179.287194 704.571609,179.00148 C707.104466,177.650051 710.007323,176.885766 712.968751,176.79148 C713.268751,176.78148 713.568751,176.782909 713.868751,176.787194 C713.784465,176.842909 713.701608,176.900051 713.620179,176.957194 C713.597322,176.972909 713.574465,176.988623 713.551608,177.004337 C713.470179,177.06148 713.384465,177.115766 713.304465,177.174337 C713.254465,177.210051 713.214465,177.254337 713.170179,177.292909 C712.997322,177.422909 712.818751,177.545766 712.654465,177.682909 C711.887322,178.327194 711.214465,179.060051 710.628751,179.87148 C707.854466,180.97148 705.061609,182.551479 702.321609,184.588622 C699.354467,186.794336 696.57161,189.437193 694.048753,192.442907 C691.524467,195.451478 689.404468,198.651478 687.748754,201.955763 C686.134468,205.177191 685.024468,208.368619 684.445897,211.440048 C683.85304,214.59719 683.851611,217.48719 684.440183,220.030047 C685.084468,222.805761 686.398754,225.041475 688.348754,226.677189 C690.298753,228.314331 692.728753,229.220046 695.573038,229.372903 C695.855896,229.387188 696.140181,229.394331 696.428753,229.394331 C698.797324,229.394331 701.351609,228.884331 704.033038,227.87576 C706.603037,226.907189 709.191608,225.51576 711.743037,223.73576 C712.745894,224.614332 713.864465,225.331475 715.095893,225.854332 C716.650179,226.51576 718.300179,226.851474 720.000179,226.851474 C721.700178,226.851474 723.34875,226.51576 724.904464,225.854332 C726.134464,225.331475 727.254463,224.614332 728.255892,223.73576 C730.80732,225.51576 733.395891,226.907189 735.96732,227.87576 C738.648748,228.884331 741.201605,229.394331 743.571605,229.394331 C743.858747,229.394331 744.143033,229.387188 744.42589,229.372903 C747.270176,229.220046 749.701604,228.314331 751.650175,226.678617 C753.600175,225.041475 754.915889,222.805761 755.558746,220.030047 C756.148746,217.48719 756.147317,214.59719 755.553032,211.440048" id="Fill-1"></path>
        </g>
    </g>
</svg>