<?xml version="1.0" encoding="UTF-8" standalone="no"?>
<svg width="86px" height="86px" viewBox="0 0 86 86" version="1.1" xmlns="http://www.w3.org/2000/svg" xmlns:xlink="http://www.w3.org/1999/xlink">
    <!-- Generator: Sketch Beta 3.7.2 (28276) - http://www.bohemiancoding.com/sketch -->
    <title>Group 6</title>
    <desc>Created with Sketch Beta.</desc>
    <defs>
        <circle id="path-1" cx="43" cy="43" r="43"></circle>
        <mask id="mask-2" maskContentUnits="userSpaceOnUse" maskUnits="objectBoundingBox" x="0" y="0" width="86" height="86" fill="white">
            <use xlink:href="#path-1"></use>
        </mask>
    </defs>
    <g id="Welcome" stroke="none" stroke-width="1" fill="none" fill-rule="evenodd">
        <g id="lantern-rough-landing-copy-2" transform="translate(-688.000000, -152.000000)">
            <g id="Group-6" transform="translate(688.000000, 152.000000)">
                <use id="Oval-11" stroke="#42BCB0" mask="url(#mask-2)" stroke-width="4" xlink:href="#path-1"></use>
                <path d="M66.9780237,44.7818154 C66.5791831,42.5050143 65.7615599,40.1476185 64.5251542,37.8708174 C63.2887484,35.5738677 61.653502,33.337364 59.639357,31.3023471 C57.6252121,29.2673302 55.4116469,27.6151382 53.1382556,26.3659199 C51.8619657,25.6607161 50.5657339,25.096553 49.269502,24.653282 C49.7680527,24.713728 50.2666034,24.7741741 50.7651542,24.8749175 C52.2807484,25.1368503 53.8561686,25.5599727 55.3917049,26.1241358 C56.9671252,26.6882989 58.5425455,27.4136514 60.0581397,28.2397474 C60.5367484,28.5016803 61.1549513,28.3203421 61.4141976,27.8367737 C61.673444,27.3532054 61.4939657,26.7285962 61.015357,26.4666634 C59.4000527,25.5801213 57.7249223,24.8144714 56.0697339,24.210011 C54.4145455,23.6055505 52.739415,23.1622795 51.1041686,22.8600493 C49.4689223,22.557819 47.8336759,22.4369269 46.2781976,22.4570756 C45.3010382,22.4772243 44.3438208,22.557819 43.4065455,22.6988598 C42.429386,22.5376703 41.4322846,22.4570756 40.4152411,22.4369269 C38.8597628,22.4167782 37.2245165,22.5376703 35.5892701,22.8399006 C33.9540237,23.1219821 32.2788933,23.5854018 30.6237049,24.1898623 C28.9485744,24.7943227 27.293386,25.539824 25.6780817,26.4465147 C25.199473,26.7084475 25.0199947,27.3330567 25.2792411,27.8166251 C25.5384875,28.3001934 26.1566904,28.4815316 26.6352991,28.2195987 C28.1708353,27.3733541 29.7462556,26.6681502 31.3017339,26.1039871 C32.8572121,25.539824 34.4126904,25.1167017 35.9282846,24.8547688 C36.4467773,24.7540254 36.9852121,24.6935793 37.5037049,24.6331333 C36.187531,25.0764043 34.851415,25.6405674 33.5551831,26.3659199 C31.2817918,27.6151382 29.0682266,29.2673302 27.0540817,31.3023471 C25.0399368,33.337364 23.4046904,35.5738677 22.1682846,37.8708174 C20.9318788,40.1476185 20.1142556,42.5050143 19.715415,44.7818154 C19.3165744,47.0586165 19.3564585,49.2548229 19.8350672,51.2495424 C20.3136759,53.2442619 21.2509513,55.0173459 22.6668353,56.4479024 C24.0827194,57.8784588 25.8376179,58.8254469 27.8118788,59.3090152 C28.8887484,59.5709481 30.005502,59.7119889 31.1820817,59.7119889 C32.1592411,59.7119889 33.1762846,59.6112455 34.2132701,59.4299073 C35.2303136,59.2485692 36.247357,58.9866363 37.2843426,58.62396 C38.8398208,60.1552599 40.9935599,61.1223966 43.3866034,61.1223966 C45.7597049,61.1223966 47.913444,60.1754086 49.4689223,58.6441087 C50.4859657,58.9866363 51.5030092,59.2485692 52.5001107,59.4299073 C53.5171542,59.6112455 54.5341976,59.7119889 55.5312991,59.7119889 C56.7078788,59.7119889 57.8246324,59.5709481 58.901502,59.3090152 C60.8757628,58.8254469 62.6306614,57.8784588 64.0465455,56.4479024 C65.4624295,55.0173459 66.3997049,53.2442619 66.8783136,51.2495424 C67.3369802,49.2548229 67.3768643,47.0586165 66.9780237,44.7818154 L66.9780237,44.7818154 Z M33.8543136,32.5314167 C34.2730962,30.8389274 35.0508353,29.4083709 36.1675889,28.2800448 C37.2843426,27.1517186 38.7002266,26.3659199 40.375357,25.9427976 C40.5747773,25.9025003 40.7741976,25.8420542 40.9736179,25.8219055 C41.7712991,25.6808648 42.5490382,25.6204187 43.3267773,25.6204187 C44.0646324,25.6204187 44.8423715,25.6808648 45.6201107,25.8219055 C45.839473,25.8622029 46.0588353,25.9025003 46.2781976,25.9629463 C47.9533281,26.3860686 49.3891542,27.1718672 50.5059078,28.3001934 C51.6226614,29.4285196 52.4203426,30.8590761 52.8391252,32.5515654 C53.2579078,34.2642033 53.2977918,36.1581795 52.9388353,38.1730477 C52.5798788,40.2685106 51.8220817,42.3841222 50.7053281,44.4795852 C49.5287484,46.6757915 47.9932121,48.7309571 46.1585455,50.5846359 C45.2611542,51.4913266 44.3238788,52.3174225 43.3666614,53.0629238 C42.389502,52.3174225 41.4522266,51.4913266 40.5747773,50.5846359 C38.7401107,48.7309571 37.2045744,46.6757915 36.0279947,44.4795852 C34.871357,42.3841222 34.1135599,40.2685106 33.7546034,38.1730477 C33.3956469,36.1380308 33.435531,34.2440547 33.8543136,32.5314167 L33.8543136,32.5314167 Z M33.8543136,57.4351878 C32.9369802,57.5963773 32.0395889,57.676972 31.1820817,57.676972 C30.1650382,57.676972 29.1878788,57.5560799 28.2904875,57.3344444 C26.615357,56.9113221 25.199473,56.1255235 24.0827194,54.9971973 C22.9659657,53.8688711 22.1882266,52.4383146 21.769444,50.7458253 C21.3506614,49.0331873 21.3307194,47.1392112 21.6697339,45.124343 C22.0286904,43.0288801 22.7864875,40.9132684 23.9231831,38.8178055 C25.0997628,36.6215992 26.615357,34.5865823 28.4699657,32.7127548 C29.9257339,31.241901 31.5210962,29.972534 33.1962266,28.9046539 C32.6179078,29.8717906 32.1991252,30.9195221 31.9199368,32.0478483 C31.4413281,34.0425678 31.401444,36.2387742 31.8002846,38.5155753 C32.1991252,40.7923764 33.0167484,43.1497722 34.2531542,45.4265732 C35.4895599,47.723523 37.1248063,49.9600267 39.1389513,51.9950436 C39.9366324,52.8009909 40.7741976,53.5666408 41.6317049,54.251696 C41.1331542,54.5740749 40.6146614,54.8763052 40.0961686,55.1785354 C38.0221976,56.3068616 35.9282846,57.0725115 33.8543136,57.4351878 L33.8543136,57.4351878 Z M43.3666614,59.1075284 C41.8710092,59.1075284 40.4750672,58.62396 39.3782556,57.7978641 C39.9366324,57.5359312 40.4950092,57.2538497 41.053386,56.9516194 C41.8311252,56.5284971 42.5889223,56.0449287 43.3467194,55.5412117 C44.1045165,56.0650774 44.8623136,56.5284971 45.6400527,56.9516194 C46.1984295,57.2538497 46.7767484,57.5560799 47.3550672,57.7978641 C46.2383136,58.62396 44.8623136,59.1075284 43.3666614,59.1075284 L43.3666614,59.1075284 Z M64.9239947,50.765974 C64.5052121,52.4584633 63.727473,53.8890197 62.6107194,55.0173459 C61.4939657,56.1456721 60.0780817,56.9314707 58.4029513,57.3545931 C57.5055599,57.5762286 56.5284005,57.6971207 55.511357,57.6971207 C54.6538498,57.6971207 53.7564585,57.6165259 52.8391252,57.4553365 C50.7651542,57.0926602 48.6712411,56.3270103 46.5972701,55.1785354 C46.0787773,54.8964539 45.5602846,54.5942236 45.0617339,54.251696 C45.9192411,53.5666408 46.7568063,52.8211396 47.5544875,51.9950436 C49.5686324,49.9600267 51.2038788,47.723523 52.4402846,45.4265732 C53.6766904,43.1296235 54.4943136,40.7722277 54.8931542,38.5155753 C55.2919947,36.2387742 55.2521107,34.0425678 54.773502,32.0478483 C54.4943136,30.9195221 54.075531,29.8717906 53.4972121,28.9046539 C55.1723426,29.972534 56.7477628,31.241901 58.223473,32.7127548 C60.0581397,34.5664336 61.5936759,36.6215992 62.7702556,38.8178055 C63.8870092,40.9132684 64.6448063,43.0288801 65.0237049,45.124343 C65.3627194,47.1593599 65.3427773,49.053336 64.9239947,50.765974 L64.9239947,50.765974 Z" id="Shape" fill="#42BCB0"></path>
            </g>
        </g>
    </g>
</svg>