<?xml version="1.0" encoding="utf-8"?>
<!-- Generator: Adobe Illustrator 19.1.0, SVG Export Plug-In . SVG Version: 6.00 Build 0)  -->
<!DOCTYPE svg PUBLIC "-//W3C//DTD SVG 1.1//EN" "http://www.w3.org/Graphics/SVG/1.1/DTD/svg11.dtd">
<svg version="1.1" id="Layer_1" xmlns="http://www.w3.org/2000/svg" xmlns:xlink="http://www.w3.org/1999/xlink" x="0px" y="0px"
	 width="48px" height="144px" viewBox="0 0 48 144" style="enable-background:new 0 0 48 144;" xml:space="preserve">
<style type="text/css">
	.st0{fill:#FFFFFF;}
</style>
<g>
	<path class="st0" d="M24,48C10.7,48,0,58.7,0,72s10.7,24,24,24s24-10.7,24-24S37.3,48,24,48z M29.3,67.9L29,71.5h-3.7V84h-4.7V71.5
		h-2.5v-3.6h2.5v-2.4c0-1.1,0-2.7,0.8-3.7c0.8-1.1,1.9-1.8,3.9-1.8c3.1,0,4.4,0.4,4.4,0.4l-0.6,3.7c0,0-1-0.3-2-0.3
		s-1.8,0.3-1.8,1.3v2.8H29.3z"/>
</g>
<g>
	<path class="st0" d="M24,124.2c2.3,0,4.2-1.9,4.2-4.2c0-0.9-0.3-1.8-0.8-2.5c-0.8-1.1-2-1.8-3.4-1.8s-2.7,0.7-3.4,1.8
		c-0.5,0.7-0.8,1.5-0.8,2.5C19.8,122.3,21.7,124.2,24,124.2z"/>
	<polygon class="st0" points="33.2,114.8 33.2,111.3 33.2,110.8 32.7,110.8 29.2,110.8 29.2,114.8 	"/>
	<path class="st0" d="M30.6,120c0,3.6-2.9,6.6-6.6,6.6s-6.6-2.9-6.6-6.6c0-0.9,0.2-1.7,0.5-2.5h-3.6v9.8c0,1.3,1,2.3,2.3,2.3h14.7
		c1.3,0,2.3-1,2.3-2.3v-9.8h-3.6C30.4,118.3,30.6,119.1,30.6,120z"/>
	<path class="st0" d="M24,96c-13.3,0-24,10.7-24,24c0,13.3,10.7,24,24,24c13.3,0,24-10.7,24-24C48,106.7,37.3,96,24,96z M36,117.5
		v9.8c0,2.6-2.1,4.6-4.6,4.6H16.6c-2.6,0-4.6-2.1-4.6-4.6v-9.8v-4.9c0-2.6,2.1-4.6,4.6-4.6h14.7c2.6,0,4.6,2.1,4.6,4.6V117.5z"/>
</g>
<g>
	<path class="st0" d="M24,0C10.7,0,0,10.7,0,24c0,13.3,10.7,24,24,24c13.3,0,24-10.7,24-24C48,10.7,37.3,0,24,0z M33.6,20.3
		c0,0.2,0,0.4,0,0.6c0,6.5-5,14-14,14c-2.8,0-5.4-0.8-7.6-2.2c0.4,0,0.8,0.1,1.2,0.1c2.3,0,4.4-0.8,6.1-2.1c-2.2,0-4-1.5-4.6-3.4
		c0.3,0.1,0.6,0.1,0.9,0.1c0.5,0,0.9-0.1,1.3-0.2c-2.3-0.5-4-2.4-4-4.8v-0.1c0.7,0.4,1.4,0.6,2.2,0.6C13.9,22,13,20.5,13,18.8
		c0-0.9,0.2-1.8,0.7-2.5c2.4,3,6.1,4.9,10.2,5.2c-0.1-0.4-0.1-0.7-0.1-1.1c0-2.7,2.2-4.9,4.9-4.9c1.4,0,2.7,0.6,3.6,1.6
		c1.1-0.2,2.2-0.6,3.1-1.2c-0.4,1.2-1.1,2.1-2.2,2.7c1-0.1,1.9-0.4,2.8-0.8C35.4,18.7,34.5,19.6,33.6,20.3z"/>
</g>
</svg>
